<svg xmlns="http://www.w3.org/2000/svg" version="1.1" xmlns:xlink="http://www.w3.org/1999/xlink" xmlns:svgjs="http://svgjs.dev/svgjs" width="1440" height="560" preserveAspectRatio="none" viewBox="0 0 1440 560"><g mask="url(&quot;#SvgjsMask1008&quot;)" fill="none"><path d="M638.54 576.56C734.33 567.33 699.95 372.17 960.01 364.83 1220.06 357.49 1436.09 187.3 1602.94 185.63" stroke="rgba(0, 56, 77, 1)" stroke-width="2"></path><path d="M795.62 651.18C889.06 621.42 816.53 378.89 1048.76 351.53 1281 324.17 1414.43 111.56 1555.05 105.13" stroke="rgba(0, 56, 77, 1)" stroke-width="2"></path><path d="M841.33 603.72C963.43 587.67 1010.02 321.2 1234.41 306.85 1458.81 292.5 1523.2 168.92 1627.5 166.85" stroke="rgba(0, 56, 77, 1)" stroke-width="2"></path><path d="M422.14 606.35C592.71 603.8 729.87 402.88 1071.74 397.44 1413.61 392 1550.03 181.94 1721.34 179.04" stroke="rgba(0, 56, 77, 1)" stroke-width="2"></path><path d="M188.29 585.98C370.56 578.31 490.29 286.14 848.38 274.86 1206.48 263.58 1332.38 32.43 1508.48 28.46" stroke="rgba(0, 56, 77, 1)" stroke-width="2"></path></g><defs><mask id="SvgjsMask1008"><rect width="1440" height="560" fill="#ffffff"></rect></mask></defs></svg>