<svg xmlns="http://www.w3.org/2000/svg" version="1.1" xmlns:xlink="http://www.w3.org/1999/xlink" xmlns:svgjs="http://svgjs.dev/svgjs" width="1440" height="560" preserveAspectRatio="none" viewBox="0 0 1440 560"><g mask="url(&quot;#SvgjsMask1042&quot;)" fill="none"><path d="M 0,256 C 96,209.8 288,26.6 480,25 C 672,23.4 768,226 960,248 C 1152,270 1344,157.6 1440,135L1440 560L0 560z" fill="rgba(116, 199, 211, 0.21)"></path><path d="M 0,288 C 57.6,327 172.8,481.6 288,483 C 403.2,484.4 460.8,292.6 576,295 C 691.2,297.4 748.8,487.4 864,495 C 979.2,502.6 1036.8,335 1152,333 C 1267.2,331 1382.4,454.6 1440,485L1440 560L0 560z" fill="rgba(116, 199, 211, 0.57)"></path></g><defs><mask id="SvgjsMask1042"><rect width="1440" height="560" fill="#ffffff"></rect></mask></defs></svg>